<svg width="64" height="64" viewBox="0 0 64 64" fill="none" xmlns="http://www.w3.org/2000/svg">
<path d="M32.2842 61.7089C22.13 61.7089 8 55.6631 8 49.7127C8 48.1416 8.88644 47.1649 10.3089 47.1649C11.2218 47.1649 12.2516 47.754 13.1433 48.3327L13.6318 48.6511C16.1742 50.3125 22.9262 54.7289 32.2842 54.7289C41.6422 54.7289 48.3996 50.3125 50.942 48.6458L51.4304 48.3274C52.4656 47.6958 53.4049 47.1649 54.318 47.1649C55.7087 47.1649 56.5687 48.1416 56.5687 49.7127C56.5687 55.6631 42.4384 61.7089 32.2789 61.7089H32.2842Z" fill="#E03C31"/>
<path d="M36.0173 41.8793C30.1411 41.8793 26.9033 38.3389 26.9033 31.9162V20.026H24.2864C22.5136 20.026 21.3244 18.8104 21.3244 17.0058C21.3244 15.2967 22.5453 14.0969 24.2864 14.0969H26.9564V5.41822C26.9564 3.37467 28.2833 2 30.2633 2C32.2431 2 33.6818 3.37467 33.6818 5.41822V14.0969H38.9153C40.6247 14.0969 41.8189 15.3178 41.8189 17.0589C41.8189 18.8 40.6247 20.0209 38.9153 20.0209H33.7931V32.7122C33.7931 35.6104 35.72 35.6104 36.3516 35.6104C37.1638 35.6104 37.9387 35.3716 38.6236 35.154C39.2498 34.9576 39.8922 34.756 40.5078 34.756C42.3976 34.756 43.2469 36.014 43.2469 37.2613C43.2469 39.9791 40.2742 41.874 36.0173 41.874V41.8793Z" fill="#E03C31"/>
</svg>
